<?xml version="1.0" encoding="UTF-8" standalone="no"?>
<!-- Created with Inkscape (http://www.inkscape.org/) -->

<svg
   width="300mm"
   height="100mm"
   viewBox="0 0 300 100"
   version="1.1"
   id="svg1"
   sodipodi:docname="edupsyadmin_logo.svg"
   inkscape:version="1.4.3 (unknown)"
   xml:space="preserve"
   inkscape:export-filename="edupsyadmin_logo_readme.svg"
   inkscape:export-xdpi="96"
   inkscape:export-ydpi="96"
   xmlns:inkscape="http://www.inkscape.org/namespaces/inkscape"
   xmlns:sodipodi="http://sodipodi.sourceforge.net/DTD/sodipodi-0.dtd"
   xmlns="http://www.w3.org/2000/svg"
   xmlns:svg="http://www.w3.org/2000/svg"><sodipodi:namedview
     id="namedview1"
     pagecolor="#ffffff"
     bordercolor="#000000"
     borderopacity="0.25"
     inkscape:showpageshadow="2"
     inkscape:pageopacity="0.0"
     inkscape:pagecheckerboard="0"
     inkscape:deskcolor="#d1d1d1"
     inkscape:document-units="mm"
     inkscape:zoom="0.5162493"
     inkscape:cx="417.43398"
     inkscape:cy="-718.64504"
     inkscape:window-width="1280"
     inkscape:window-height="1368"
     inkscape:window-x="0"
     inkscape:window-y="0"
     inkscape:window-maximized="0"
     inkscape:current-layer="layer4"
     showgrid="true"><inkscape:grid
       id="grid7"
       units="mm"
       originx="0"
       originy="0"
       spacingx="0.99999999"
       spacingy="0.99999999"
       empcolor="#0099e5"
       empopacity="0.30196078"
       color="#0099e5"
       opacity="0.14901961"
       empspacing="5"
       enabled="true"
       visible="true" /></sodipodi:namedview><defs
     id="defs1"><rect
       x="572.53469"
       y="82.182014"
       width="438.30407"
       height="219.15204"
       id="rect7" /><rect
       x="578.0135"
       y="63.00621"
       width="271.20064"
       height="164.36403"
       id="rect6" /><rect
       x="556.09829"
       y="87.660814"
       width="515.00728"
       height="221.89144"
       id="rect5" /><rect
       x="530.75134"
       y="294.4314"
       width="1836.3221"
       height="1336.5636"
       id="rect4" /><rect
       x="507.50674"
       y="213.07535"
       width="2146.25"
       height="1394.675"
       id="rect3" /><inkscape:path-effect
       effect="fillet_chamfer"
       id="path-effect2"
       is_visible="true"
       lpeversion="1"
       nodesatellites_param="F,0,0,1,0,28.568965,0,1 @ F,0,0,1,0,28.217232,0,1 @ F,0,0,1,0,32.917763,0,1 @ F,0,0,1,0,34.015629,0,1"
       radius="0"
       unit="px"
       method="auto"
       mode="F"
       chamfer_steps="1"
       flexible="false"
       use_knot_distance="true"
       apply_no_radius="true"
       apply_with_radius="true"
       only_selected="false"
       hide_knots="false" /></defs><g
     inkscape:label="FolderBackground"
     inkscape:groupmode="layer"
     id="layer1"
     style="display:inline"><path
       id="rect1"
       style="fill:none;stroke:#696969;stroke-width:0.876972;stroke-linecap:round;stroke-linejoin:round;stroke-dasharray:none;stroke-opacity:1"
       d="M 79.892028,35.869543 H 148.16979 V 91.957617 H 79.892028 Z" /></g><g
     inkscape:groupmode="layer"
     id="layer2"
     inkscape:label="Layer-Psy"
     style="display:inline"><path
       style="font-style:normal;font-weight:normal;font-size:2050.28px;font-family:'Times New Roman';fill:#000000;fill-opacity:1;stroke:none;stroke-width:0.0382023px;stroke-linecap:butt;stroke-linejoin:miter;stroke-opacity:1"
       d="m 121.01283,37.889628 c 3.41481,0.602151 6.10917,0.481772 8.08308,-0.36114 1.97382,-0.842868 3.40188,-2.040893 4.2842,-3.594079 0.88224,-1.553141 1.75217,-4.247633 2.6098,-8.083489 0.9328,-4.262648 2.45663,-7.288447 4.57146,-9.077397 2.11472,-1.788872 5.16827,-2.331348 9.16071,-1.627428 l -0.25236,1.431226 c -1.449,-0.151885 -2.52049,0.235229 -3.21446,1.161352 -0.69412,0.9262 -1.33115,3.033931 -1.91108,6.323204 -0.85008,4.821007 -2.01496,8.453781 -3.49449,10.898359 -1.47964,2.444622 -3.89499,4.212899 -7.24605,5.304833 -3.35114,1.09197 -7.71189,1.229198 -13.08227,0.411685 l -2.10524,11.939431 c -0.51804,2.937787 -0.68393,4.869685 -0.49766,5.79573 0.18619,0.926036 0.77894,1.748999 1.77825,2.468888 0.99924,0.719889 2.64134,1.281274 4.92632,1.684175 l -0.24572,1.393564 -22.67363,-3.997977 0.24573,-1.393564 c 2.23912,0.368932 3.94577,0.417438 5.11995,0.145512 1.17413,-0.271932 2.02185,-0.821484 2.54312,-1.648663 0.52123,-0.827178 1.0453,-2.734759 1.57219,-5.722765 l 2.10524,-11.939432 c -5.37637,-1.077427 -9.41686,-2.683077 -12.12146,-4.816949 -2.704672,-2.133832 -4.361442,-4.594241 -4.970322,-7.38124 -0.60893,-2.786937 -0.47727,-6.653677 0.39494,-11.60023 0.55785,-3.163719 0.69011,-5.308673 0.39678,-6.4348735 -0.29336,-1.1261058 -1.18002,-1.8973336 -2.65999,-2.313684 l 0.25237,-1.4312253 c 2.52716,0.4974404 4.50272,1.2600227 5.926672,2.2877511 1.42395,1.0278239 2.43848,2.5788757 3.04361,4.6531597 0.60508,2.074372 0.6959,4.679374 0.27247,7.815016 -0.50165,3.872736 -0.61609,6.687498 -0.34331,8.444292 0.27272,1.756854 1.21008,3.378442 2.81209,4.864772 1.60196,1.486376 4.09782,2.528404 7.4876,3.126086 l 2.89554,-16.421431 c 0.51797,-2.937739 0.68386,-4.869647 0.49767,-5.795726 -0.18626,-0.925995 -0.77493,-1.735297 -1.76606,-2.427905 -0.99117,-0.692519 -2.63956,-1.255017 -4.94516,-1.687495 l 0.24573,-1.3935635 22.67364,3.9979735 -0.24574,1.393561 c -2.31453,-0.382172 -4.05478,-0.423653 -5.22076,-0.124445 -1.16606,0.299292 -1.99605,0.858442 -2.48994,1.677453 -0.49399,0.819092 -0.99995,2.697507 -1.51792,5.635246 z"
       id="text2175"
       sodipodi:nodetypes="csccscccccsccccccccscccccscccccccccccccccccccc" /></g><g
     inkscape:groupmode="layer"
     id="layer4"
     inkscape:label="edupsyadmin-text"><text
       xml:space="preserve"
       transform="matrix(0.26458333,0,0,0.26458333,-139.55596,-0.76564126)"
       id="text5"
       style="font-style:normal;font-variant:normal;font-weight:normal;font-stretch:normal;font-size:133.333px;font-family:'Liberation Sans';-inkscape-font-specification:'Liberation Sans';writing-mode:lr-tb;direction:ltr;white-space:pre;shape-inside:url(#rect6);display:inline;fill:#ffffff;stroke:#696969;stroke-width:15.1181;stroke-linecap:round;stroke-linejoin:round"><tspan
         x="578.01367"
         y="183.10614"
         id="tspan1">edu</tspan></text><text
       xml:space="preserve"
       transform="matrix(0.26458333,0,0,0.26458333,12.065987,-6.0986195)"
       id="text6"
       style="font-style:normal;font-variant:normal;font-weight:normal;font-stretch:normal;font-size:133.333px;font-family:'Liberation Sans';-inkscape-font-specification:'Liberation Sans';writing-mode:lr-tb;direction:ltr;white-space:pre;shape-inside:url(#rect7);display:inline;fill:#ffffff;stroke:#696969;stroke-width:15.1181;stroke-linecap:round;stroke-linejoin:round"><tspan
         x="572.53516"
         y="202.28192"
         id="tspan2">admin</tspan></text></g><g
     inkscape:groupmode="layer"
     id="layer3"
     inkscape:label="FolderForeground"
     style="display:inline"><path
       id="rect2"
       style="display:inline;opacity:1;fill:#ffffff;fill-opacity:1;stroke:#000000;stroke-width:0.876972;stroke-linecap:round;stroke-linejoin:round;stroke-dasharray:none"
       d="m 89.598578,43.541363 h 67.577032 l -9.41487,48.215092 H 80.183708 Z"
       sodipodi:nodetypes="ccccc" /></g></svg>
